<svg width="320"
    height="180"
    viewBox="0 0 320 180"
    fill="none"
    xmlns="http://www.w3.org/2000/svg">
    <circle
        cx="54"
        cy="88"
        r="25"
        fill="white" />
    <path
        d="M47 78.0028V98.7228C47 100.303 48.74 101.263 50.08 100.403L66.36 90.0428C67.6 89.2628 67.6 87.4628 66.36 86.6628L50.08 76.3228C48.74 75.4628 47 76.4228 47 78.0028Z"
        fill="#FF635B" />
    <path
        d="M112.793 101.5L111.353 95.132H101.657L100.025 101.5H96.2813L102.073 80.092C102.372 79.004 102.681 78.172 103.001 77.596C103.321 76.9987 103.78 76.5827 104.377 76.348C104.975 76.1133 105.807 76.0067 106.873 76.028L110.841 76.124L116.825 101.5H112.793ZM105.593 80.028L102.521 91.676H110.585L107.801 79.58H106.041C105.785 79.58 105.636 79.7293 105.593 80.028ZM128.921 81.628C130.521 81.628 131.694 81.948 132.441 82.588C133.188 83.228 133.561 84.3587 133.561 85.98V101.5H129.689V85.212C129.689 84.9133 129.55 84.764 129.273 84.764H123.673C123.374 84.764 123.225 84.9133 123.225 85.212L123.257 101.5H119.417L119.353 81.916H122.809L123.097 83.9C123.524 82.3853 124.708 81.628 126.649 81.628H128.921ZM137.924 78.428V74.844H141.828V78.428H137.924ZM137.924 101.5V81.916H141.828V101.5H137.924ZM156.013 84.956H151.437V97.82C151.437 98.0973 151.575 98.236 151.853 98.236H156.013V101.5H153.037C151.117 101.5 149.719 101.127 148.845 100.38C147.991 99.6333 147.565 98.3853 147.565 96.636V84.956H145.261V81.916H147.565V76.924H151.437V81.916H156.013V84.956ZM162.704 101.788C161.083 101.788 159.899 101.479 159.152 100.86C158.427 100.22 158.064 99.0893 158.064 97.468V81.916H161.936V98.204C161.936 98.5027 162.075 98.652 162.352 98.652H168.4L168.368 81.916H172.24L172.304 101.5H168.848L168.496 99.356C168.326 100.167 167.952 100.775 167.376 101.18C166.8 101.585 166 101.788 164.976 101.788H162.704ZM176.762 101.5V74.556H180.634V83.772C181.061 82.3427 182.202 81.628 184.058 81.628H186.298C187.92 81.628 189.104 81.948 189.85 82.588C190.597 83.228 190.97 84.3587 190.97 85.98V97.116C190.97 98.844 190.576 100.049 189.786 100.732C189.018 101.393 187.717 101.713 185.882 101.692L176.762 101.5ZM180.634 85.212V98.396L186.682 98.46C186.96 98.46 187.098 98.3107 187.098 98.012V85.212C187.098 84.9133 186.96 84.764 186.682 84.764H181.082C180.784 84.764 180.634 84.9133 180.634 85.212ZM200.068 101.724C198.126 101.724 196.718 101.351 195.844 100.604C194.99 99.8573 194.564 98.5987 194.564 96.828V86.3C194.564 84.5293 194.937 83.3133 195.684 82.652C196.43 81.9693 197.71 81.628 199.524 81.628H203.46C205.294 81.628 206.596 81.9693 207.364 82.652C208.153 83.3133 208.548 84.5293 208.548 86.3V93.948H198.468V98.044C198.468 98.3213 198.606 98.46 198.884 98.46H208.036V101.724H200.068ZM198.884 84.764C198.606 84.764 198.468 84.9133 198.468 85.212V91.132H204.676V85.212C204.676 84.9133 204.537 84.764 204.26 84.764H198.884ZM227.075 101.5L225.635 95.132H215.939L214.307 101.5H210.563L216.355 80.092C216.653 79.004 216.963 78.172 217.283 77.596C217.603 76.9987 218.061 76.5827 218.659 76.348C219.256 76.1133 220.088 76.0067 221.155 76.028L225.123 76.124L231.107 101.5H227.075ZM219.875 80.028L216.803 91.676H224.867L222.083 79.58H220.323C220.067 79.58 219.917 79.7293 219.875 80.028ZM233.762 109.084V81.916H237.186L237.538 84.156C237.709 83.324 238.072 82.6947 238.626 82.268C239.202 81.8413 240.013 81.628 241.058 81.628H243.298C244.92 81.628 246.104 81.948 246.85 82.588C247.597 83.228 247.97 84.3587 247.97 85.98V97.02C247.97 98.748 247.576 99.9427 246.786 100.604C246.018 101.265 244.717 101.596 242.882 101.596L237.634 101.532V109.084H233.762ZM237.634 85.212V98.364L243.682 98.428C243.96 98.428 244.098 98.2893 244.098 98.012V85.212C244.098 84.9133 243.96 84.764 243.682 84.764H238.082C237.784 84.764 237.634 84.9133 237.634 85.212ZM252.044 109.084V81.916H255.468L255.82 84.156C255.99 83.324 256.353 82.6947 256.908 82.268C257.484 81.8413 258.294 81.628 259.34 81.628H261.58C263.201 81.628 264.385 81.948 265.132 82.588C265.878 83.228 266.252 84.3587 266.252 85.98V97.02C266.252 98.748 265.857 99.9427 265.068 100.604C264.3 101.265 262.998 101.596 261.164 101.596L255.916 101.532V109.084H252.044ZM255.916 85.212V98.364L261.964 98.428C262.241 98.428 262.38 98.2893 262.38 98.012V85.212C262.38 84.9133 262.241 84.764 261.964 84.764H256.364C256.065 84.764 255.916 84.9133 255.916 85.212Z"
        fill="#EEEEEE" />
</svg>
